<mxfile host="app.diagrams.net" modified="2022-08-04T10:05:23.365Z" agent="5.0 (Windows NT 10.0; WOW64) AppleWebKit/537.36 (KHTML, like Gecko) Chrome/103.0.5060.134 Safari/537.36" etag="rkZ5uFs1tvO9V7WIudMr" version="20.2.1" type="github">
  <diagram id="pMBBul6f_d_Qe1jMEzPH" name="Page-1">
    <mxGraphModel dx="1328" dy="594" grid="0" gridSize="10" guides="1" tooltips="1" connect="1" arrows="1" fold="1" page="1" pageScale="1" pageWidth="4681" pageHeight="3300" math="0" shadow="0">
      <root>
        <mxCell id="0" />
        <mxCell id="1" parent="0" />
        <mxCell id="woKHRuvvn5QKjZrDq-fE-1" value="agency" style="swimlane;fontStyle=0;childLayout=stackLayout;horizontal=1;startSize=30;horizontalStack=0;resizeParent=1;resizeParentMax=0;resizeLast=0;collapsible=1;marginBottom=0;" vertex="1" parent="1">
          <mxGeometry x="160" y="160" width="140" height="90" as="geometry" />
        </mxCell>
        <mxCell id="woKHRuvvn5QKjZrDq-fE-2" value="tag 1" style="text;strokeColor=none;fillColor=none;align=left;verticalAlign=middle;spacingLeft=4;spacingRight=4;overflow=hidden;points=[[0,0.5],[1,0.5]];portConstraint=eastwest;rotatable=0;" vertex="1" parent="woKHRuvvn5QKjZrDq-fE-1">
          <mxGeometry y="30" width="140" height="30" as="geometry" />
        </mxCell>
        <mxCell id="woKHRuvvn5QKjZrDq-fE-3" value="Item 2" style="text;strokeColor=none;fillColor=none;align=left;verticalAlign=middle;spacingLeft=4;spacingRight=4;overflow=hidden;points=[[0,0.5],[1,0.5]];portConstraint=eastwest;rotatable=0;" vertex="1" parent="woKHRuvvn5QKjZrDq-fE-1">
          <mxGeometry y="60" width="140" height="30" as="geometry" />
        </mxCell>
        <mxCell id="woKHRuvvn5QKjZrDq-fE-5" value="Update tag 1" style="text;html=1;strokeColor=none;fillColor=none;align=center;verticalAlign=middle;whiteSpace=wrap;rounded=0;" vertex="1" parent="1">
          <mxGeometry x="360" y="220" width="60" height="30" as="geometry" />
        </mxCell>
        <mxCell id="woKHRuvvn5QKjZrDq-fE-6" style="edgeStyle=orthogonalEdgeStyle;rounded=0;orthogonalLoop=1;jettySize=auto;html=1;" edge="1" parent="1" source="woKHRuvvn5QKjZrDq-fE-3" target="woKHRuvvn5QKjZrDq-fE-5">
          <mxGeometry relative="1" as="geometry" />
        </mxCell>
        <mxCell id="woKHRuvvn5QKjZrDq-fE-7" value="tag" style="swimlane;fontStyle=0;childLayout=stackLayout;horizontal=1;startSize=30;horizontalStack=0;resizeParent=1;resizeParentMax=0;resizeLast=0;collapsible=1;marginBottom=0;" vertex="1" parent="1">
          <mxGeometry x="783" y="48" width="140" height="90" as="geometry" />
        </mxCell>
        <mxCell id="woKHRuvvn5QKjZrDq-fE-8" value="Item 1" style="text;strokeColor=none;fillColor=none;align=left;verticalAlign=middle;spacingLeft=4;spacingRight=4;overflow=hidden;points=[[0,0.5],[1,0.5]];portConstraint=eastwest;rotatable=0;" vertex="1" parent="woKHRuvvn5QKjZrDq-fE-7">
          <mxGeometry y="30" width="140" height="30" as="geometry" />
        </mxCell>
        <mxCell id="woKHRuvvn5QKjZrDq-fE-9" value="Item 2" style="text;strokeColor=none;fillColor=none;align=left;verticalAlign=middle;spacingLeft=4;spacingRight=4;overflow=hidden;points=[[0,0.5],[1,0.5]];portConstraint=eastwest;rotatable=0;" vertex="1" parent="woKHRuvvn5QKjZrDq-fE-7">
          <mxGeometry y="60" width="140" height="30" as="geometry" />
        </mxCell>
        <mxCell id="woKHRuvvn5QKjZrDq-fE-12" style="edgeStyle=orthogonalEdgeStyle;rounded=0;orthogonalLoop=1;jettySize=auto;html=1;" edge="1" parent="1" source="woKHRuvvn5QKjZrDq-fE-11" target="woKHRuvvn5QKjZrDq-fE-8">
          <mxGeometry relative="1" as="geometry" />
        </mxCell>
        <mxCell id="woKHRuvvn5QKjZrDq-fE-11" value="Update Usage Count" style="text;html=1;strokeColor=none;fillColor=none;align=center;verticalAlign=middle;whiteSpace=wrap;rounded=0;" vertex="1" parent="1">
          <mxGeometry x="654" y="78" width="77" height="30" as="geometry" />
        </mxCell>
        <mxCell id="woKHRuvvn5QKjZrDq-fE-14" style="edgeStyle=orthogonalEdgeStyle;rounded=0;orthogonalLoop=1;jettySize=auto;html=1;" edge="1" parent="1" source="woKHRuvvn5QKjZrDq-fE-13" target="woKHRuvvn5QKjZrDq-fE-11">
          <mxGeometry relative="1" as="geometry" />
        </mxCell>
        <mxCell id="woKHRuvvn5QKjZrDq-fE-13" value="svc.directory.tag..request" style="text;html=1;strokeColor=none;fillColor=none;align=center;verticalAlign=middle;whiteSpace=wrap;rounded=0;" vertex="1" parent="1">
          <mxGeometry x="431" y="78" width="142" height="30" as="geometry" />
        </mxCell>
      </root>
    </mxGraphModel>
  </diagram>
</mxfile>
